<?xml version="1.0" encoding="utf-8"?>
<!-- Generator: Adobe Illustrator 19.2.1, SVG Export Plug-In . SVG Version: 6.00 Build 0)  -->
<svg version="1.1" id="Layer_1" xmlns="http://www.w3.org/2000/svg" xmlns:xlink="http://www.w3.org/1999/xlink" x="0px" y="0px"
	 viewBox="0 0 260 260" style="enable-background:new 0 0 260 260;" xml:space="preserve">
<style type="text/css">
	.st0{fill:url(#SVGID_1_);}
	.st1{fill:url(#SVGID_2_);}
</style>
<g>
	<g>
		<linearGradient id="SVGID_1_" gradientUnits="userSpaceOnUse" x1="129.9999" y1="63.6779" x2="129.9999" y2="211.6437">
			<stop  offset="0.2228" style="stop-color:#08699E"/>
			<stop  offset="0.3292" style="stop-color:#2482A6"/>
			<stop  offset="0.4608" style="stop-color:#3CA2AE"/>
			<stop  offset="0.5596" style="stop-color:#4BB7B2"/>
			<stop  offset="0.6137" style="stop-color:#50C1B4"/>
			<stop  offset="0.6961" style="stop-color:#52C1B6"/>
			<stop  offset="0.7763" style="stop-color:#59C0BC"/>
			<stop  offset="0.8556" style="stop-color:#62C0C8"/>
			<stop  offset="0.9339" style="stop-color:#6DC1D7"/>
			<stop  offset="1" style="stop-color:#77C1EA"/>
		</linearGradient>
		<path class="st0" d="M199.4,128.3c-2.1-0.3-4,1-4.6,3c-0.9,3.2-1.8,6-2.7,8.3c-0.9,2.1-1.6,2.8-1.9,3.1c-0.3-0.4-1.1-1.4-2-4.1
			c-0.9-2.7-1.7-6.3-2.5-9.7c-1-4.1-1.9-8.4-3.2-11.7c-0.7-1.8-2.8-7.2-7.5-7.2c0,0,0,0,0,0c-6.4,0-8.3,10.3-10.7,23.2
			c-0.8,4.3-1.6,8.8-2.5,12.3c-0.7,2.5-1.3,4-1.7,4.8c-0.5-1-1.1-2.8-1.9-6.2c-1-4.3-1.8-9.7-2.6-14.9c-2.5-16.5-4.2-27.4-10.7-27.4
			c0,0,0,0,0,0c-4.4,0-6.2,5.4-7.6,14.1c-1.2,7-2.1,16.3-3.1,25.3c-0.8,8-1.7,16.2-2.6,22.6c-0.6,4.1-1.2,6.7-1.7,8.4
			c-0.5-1.7-1.1-4.4-1.7-8.4c-1-6.4-1.8-14.7-2.7-22.6c-0.9-9-1.9-18.4-3.1-25.3c-1.5-8.7-3.3-14.1-7.6-14.1c0,0,0,0,0,0
			c-6.5,0-8.2,10.9-10.7,27.5c-0.8,5.3-1.6,10.7-2.6,14.9c-0.8,3.4-1.4,5.2-1.9,6.2c-0.4-0.8-1-2.3-1.7-4.8c-0.9-3.5-1.8-8-2.6-12.3
			c-2.4-13-4.3-23.2-10.7-23.2c0,0,0,0,0,0c-4.7,0-6.8,5.4-7.5,7.2c-1.3,3.3-2.2,7.6-3.2,11.7c-0.8,3.4-1.6,7-2.5,9.7
			c-0.9,2.7-1.6,3.7-2,4.1c-0.3-0.3-0.9-1-1.8-3.1c-1-2.3-1.8-5.5-2.5-8.2c-0.6-2.1-2.5-3.3-4.6-3.1c-2.1,0.3-3.6,2-3.6,4.1l0,33
			c0,2.5,1.6,4.7,3.9,5.5c12.7,4.3,44.2,16.2,64.1,34.9c1,1,2.4,1.5,3.8,1.6c0.4,0,0.8,0,1.2,0c0.4,0,0.8,0,1.2,0
			c1.4,0,2.8-0.6,3.8-1.6c19.8-18.7,51.4-30.6,64.1-34.9c2.4-0.8,3.9-3,3.9-5.5v-33.2C203,130.3,201.5,128.6,199.4,128.3z
			 M196.6,165.2c-37.2,12.6-57.1,27.8-65.8,35.9c-0.5,0-1.1,0-1.6,0c-8.7-8.1-28.6-23.4-65.8-35.9l0-19.7c1.5,2.4,3.5,4,6.2,4
			c0,0,0,0,0,0c4.7,0,6.8-5.4,7.5-7.2c1.3-3.3,2.2-7.6,3.2-11.7c0.8-3.4,1.6-7,2.5-9.7c0.7-2.2,1.4-3.3,1.7-3.8
			c0.4,0.7,1.1,2.1,2,5.2c0.9,3.5,1.8,8,2.6,12.3c2.4,12.9,4.3,23.2,10.7,23.2c0,0,0,0,0,0c6.5,0,8.2-10.9,10.7-27.5
			c0.8-5.3,1.6-10.7,2.6-14.9c0.6-2.5,1.1-4.2,1.5-5.3c0.5,1.6,1.2,4.5,1.9,9.3c1,6.4,1.8,14.7,2.7,22.6c0.9,9,1.9,18.4,3.1,25.3
			c1.5,8.7,3.3,14.1,7.6,14.1c0,0,0,0,0,0c4.4,0,6.2-5.4,7.6-14.1c1.2-7,2.1-16.3,3.1-25.4c0.8-8,1.7-16.2,2.6-22.6
			c0.7-4.8,1.4-7.7,1.9-9.3c0.4,1.1,0.9,2.8,1.5,5.3c1,4.3,1.8,9.7,2.6,14.9c2.5,16.5,4.2,27.4,10.7,27.4c0,0,0,0,0,0
			c6.4,0,8.3-10.3,10.7-23.2c0.8-4.3,1.6-8.8,2.5-12.3c0.8-3.1,1.5-4.6,2-5.3c0.4,0.5,1,1.6,1.7,3.8c0.9,2.7,1.7,6.3,2.5,9.7
			c1,4.1,1.9,8.4,3.2,11.7c0.7,1.8,2.8,7.2,7.5,7.2c0,0,0,0,0,0c2.8,0,4.9-1.7,6.5-4.4V165.2z"/>
		<linearGradient id="SVGID_2_" gradientUnits="userSpaceOnUse" x1="130" y1="63.6779" x2="130" y2="211.6437">
			<stop  offset="0" style="stop-color:#08699E"/>
			<stop  offset="0.2315" style="stop-color:#2482A6"/>
			<stop  offset="0.4709" style="stop-color:#379BAD"/>
			<stop  offset="0.6874" style="stop-color:#45AEB0"/>
			<stop  offset="0.871" style="stop-color:#4EBBB2"/>
			<stop  offset="1" style="stop-color:#50C1B4"/>
		</linearGradient>
		<path class="st1" d="M239,113.6l-20.9-12c-0.9-0.5-1.9,0.1-1.9,1.1v8.5c-0.1,0-0.2,0-0.3,0H203V58.2c0-1.9-0.9-3.6-2.4-4.7
			c-1.5-1.1-3.5-1.4-5.2-0.8c-39.3,13.5-58.5,30-65.4,36.9c-6.8-6.9-26.1-23.4-65.4-36.9c-1.8-0.6-3.7-0.3-5.3,0.8
			c-1.5,1.1-2.4,2.8-2.4,4.7v52.9H44.1c-0.1,0-0.2,0-0.3,0v-8.5c0-1-1.1-1.6-1.9-1.1l-20.9,12c-0.9,0.5-0.9,1.7,0,2.2l20.9,12
			c0.9,0.5,1.9-0.1,1.9-1.1v-9.2c0.1,0,0.2,0,0.3,0h13.5c3.2,0,5.8-2.6,5.8-5.8V59.1c39.4,13.7,57.7,30.6,62.4,35.5
			c1.1,1.1,2.6,1.8,4.2,1.8c1.6,0,3.1-0.6,4.2-1.8c4.7-4.9,23-21.8,62.4-35.5v52.6c0,3.2,2.6,5.8,5.8,5.8h13.5c0.1,0,0.2,0,0.3,0
			v9.2c0,1,1.1,1.6,1.9,1.1l20.9-12C239.9,115.3,239.9,114.1,239,113.6z"/>
	</g>
</g>
</svg>
